<?xml version="1.0" encoding="utf-8"?>
<!-- Generator: Adobe Illustrator 24.1.2, SVG Export Plug-In . SVG Version: 6.00 Build 0)  -->
<svg version="1.1" id="Layer_1" xmlns="http://www.w3.org/2000/svg" xmlns:xlink="http://www.w3.org/1999/xlink" x="0px" y="0px"
	 viewBox="0 0 94.3 11.5" style="enable-background:new 0 0 94.3 11.5;" xml:space="preserve">
<style type="text/css">
	.st0{fill:#FFFFFF;}
</style>
<g>
	<path class="st0" d="M0,0.1h6.8c0.9,0,1.6,0.1,2.2,0.3c0.6,0.2,1.2,0.5,1.6,0.8c0.4,0.4,0.7,0.8,0.9,1.3c0.2,0.5,0.3,1.1,0.3,1.7
		c0,0.6-0.1,1.2-0.3,1.7c-0.2,0.5-0.5,1-0.9,1.3c-0.4,0.4-0.9,0.7-1.6,0.9C8.5,8.3,7.7,8.4,6.9,8.4l-4.6,0v3H0V0.1z M6.9,6.4
		c0.4,0,0.8-0.1,1.1-0.2C8.4,6.1,8.6,6,8.9,5.8c0.2-0.2,0.4-0.4,0.5-0.7c0.1-0.3,0.2-0.6,0.2-0.9c0-0.7-0.2-1.2-0.7-1.6
		C8.4,2.3,7.8,2.1,6.9,2.1H2.3v4.3H6.9z"/>
	<path class="st0" d="M14.9,0.1h9.4v6.4h7V0.1h2.3v11.3h-2.3v-3h-7v3h-9.4V0.1z"/>
	<path class="st0" d="M36.7,0.1H39v9.3h6.5v2h-8.8V0.1z"/>
	<path class="st0" d="M60.9,0.1h2.4l5.5,11.3h-2.4l-0.9-1.9h-6.6L58,11.4h-2.4L60.9,0.1z M64.6,7.6l-2.4-5.1l-2.4,5.1H64.6z"/>
	<path class="st0" d="M70.6,0.1h5.8c0.9,0,1.6,0.1,2.3,0.3c0.6,0.2,1.2,0.4,1.6,0.8c0.4,0.3,0.7,0.8,0.9,1.3
		c0.2,0.5,0.3,1.1,0.3,1.7c0,0.4-0.1,0.8-0.2,1.2c-0.1,0.4-0.3,0.7-0.5,1c-0.2,0.3-0.5,0.6-0.8,0.9c-0.3,0.2-0.7,0.5-1.1,0.6
		l2.5,3.6h-2.8l-2.1-3.2h-0.1l-3.5,0v3.2h-2.3V0.1z M76.4,6.2c0.4,0,0.8-0.1,1.1-0.2c0.3-0.1,0.6-0.2,0.8-0.4
		c0.2-0.2,0.4-0.4,0.5-0.7C79,4.7,79,4.4,79,4.1c0-0.6-0.2-1.1-0.7-1.5c-0.4-0.3-1.1-0.5-2-0.5h-3.5v4.1H76.4z"/>
	<path class="st0" d="M87.6,2.1h-4.2v-2H94v2h-4.2v9.3h-2.3V2.1z"/>
	<path class="st0" d="M53.3,6c0,1.4-1.1,2.5-2.5,2.5c-1.4,0-2.5-1.1-2.5-2.5s1.1-2.5,2.5-2.5C52.2,3.6,53.3,4.7,53.3,6z"/>
</g>
</svg>
