<svg width="94" height="12" xmlns="http://www.w3.org/2000/svg" fill="none">
 <defs>
  <filter id="filter0_dd_325_110" x="0" y="-28" width="206" height="123.319" filterUnits="userSpaceOnUse" color-interpolation-filters="sRGB">
   <feGaussianBlur stdDeviation="25"/>
   <feGaussianBlur stdDeviation="25"/>
  </filter>
 </defs>
 <g>
  <title>Layer 1</title>
  <g filter="url(#filter0_dd_325_110)" id="svg_1">
   <path d="m0,0l6.8286,0c0.8621,0 1.6093,0.0941 2.2415,0.2824c0.6322,0.1883 1.1567,0.4611 1.5734,0.8184c0.4167,0.3524 0.7256,0.7845 0.9268,1.2963c0.2059,0.5118 0.3089,1.0887 0.3089,1.7309c0,0.6035 -0.1006,1.1611 -0.3017,1.6729c-0.2012,0.5118 -0.5101,0.9559 -0.9268,1.3325c-0.4119,0.3718 -0.934,0.6639 -1.5662,0.8763c-0.6323,0.2076 -1.3794,0.3114 -2.2416,0.3114l-4.5654,-0.0072l0,3.0054l-2.2775,0l0,-11.3193zm6.886,6.3296c0.4311,0 0.8071,-0.0507 1.128,-0.1521c0.3257,-0.1062 0.5963,-0.2535 0.8118,-0.4418c0.2204,-0.1931 0.3832,-0.4249 0.4886,-0.6952c0.1101,-0.2752 0.1652,-0.5794 0.1652,-0.9125c0,-0.6711 -0.2179,-1.1926 -0.6538,-1.5643c-0.431,-0.3766 -1.0776,-0.5649 -1.9398,-0.5649l-4.6085,0l0,4.3308l4.6085,0z" fill="white" id="svg_2"/>
   <path d="m14.8441,0l9.4136,0l0,6.3698l6.9832,0l0,-6.3698l2.2847,0l0,11.3194l-2.2847,0l0,-2.987l-6.9832,0l0,2.987l-9.4136,0l0,-11.3194z" fill="white" id="svg_3"/>
   <path d="m36.7155,0l2.2774,0l0,9.3061l6.5307,0l0,2.0133l-8.8081,0l0,-11.3194z" fill="white" id="svg_4"/>
   <path d="m60.896,0l2.432,0l5.471,11.3194l-2.41,0l-0.904,-1.9047l-6.608,0l-0.876,1.9047l-2.417,0l5.312,-11.3194zm3.684,7.5245l-2.446,-5.1419l-2.381,5.1419l4.827,0z" fill="white" id="svg_5"/>
   <path d="m70.558,0l5.754,0c0.868,0 1.621,0.0917 2.258,0.2752c0.637,0.1786 1.165,0.4394 1.585,0.7821c0.42,0.3428 0.731,0.7605 0.933,1.2529c0.208,0.4925 0.312,1.0501 0.312,1.6729c0,0.4201 -0.051,0.8208 -0.152,1.2022c-0.102,0.3766 -0.258,0.7242 -0.471,1.0429c-0.207,0.3186 -0.47,0.6035 -0.789,0.8546c-0.318,0.2462 -0.692,0.4514 -1.121,0.6155l2.46,3.6211l-2.808,0l-2.128,-3.2155l-0.065,0l-3.474,-0.0073l0,3.2228l-2.294,0l0,-11.3194zm5.812,6.1123c0.434,0 0.813,-0.0507 1.136,-0.1521c0.328,-0.1014 0.601,-0.2438 0.818,-0.4272c0.222,-0.1835 0.386,-0.4056 0.492,-0.6663c0.111,-0.2656 0.166,-0.5601 0.166,-0.8836c0,-0.6324 -0.217,-1.1201 -0.651,-1.4629c-0.434,-0.3476 -1.088,-0.5214 -1.961,-0.5214l-3.518,0l0,4.1135l3.518,0z" fill="white" id="svg_6"/>
   <path d="m87.53,2.0133l-4.176,0l0,-2.0133l10.646,0l0,2.0133l-4.176,0l0,9.3061l-2.294,0l0,-9.3061z" fill="white" id="svg_7"/>
   <path d="m53.294,5.9517c0,1.3652 -1.106,2.4719 -2.47,2.4719c-1.365,0 -2.471,-1.1067 -2.471,-2.4719c0,-1.3652 1.106,-2.472 2.471,-2.472c1.364,0 2.47,1.1068 2.47,2.472z" fill="white" id="svg_8"/>
  </g>
 </g>
</svg>